<?xml version="1.0" encoding="UTF-8" standalone="no"?>
<svg
   xmlns:dc="http://purl.org/dc/elements/1.1/"
   xmlns:cc="http://creativecommons.org/ns#"
   xmlns:rdf="http://www.w3.org/1999/02/22-rdf-syntax-ns#"
   xmlns:svg="http://www.w3.org/2000/svg"
   xmlns="http://www.w3.org/2000/svg"
   xmlns:sodipodi="http://sodipodi.sourceforge.net/DTD/sodipodi-0.dtd"
   xmlns:inkscape="http://www.inkscape.org/namespaces/inkscape"
   version="1.1"
   id="Capa_1"
   x="0px"
   y="0px"
   viewBox="0 0 847.30374 673.25456"
   xml:space="preserve"
   sodipodi:docname="planet.svg"
   width="847.30377"
   height="673.25458"
   inkscape:version="1.0.2 (e86c8708, 2021-01-15)"><metadata
   id="metadata2378"><rdf:RDF><cc:Work
       rdf:about=""><dc:format>image/svg+xml</dc:format><dc:type
         rdf:resource="http://purl.org/dc/dcmitype/StillImage" /><dc:title></dc:title></cc:Work></rdf:RDF></metadata><defs
   id="defs2376" /><sodipodi:namedview
   pagecolor="#ffffff"
   bordercolor="#666666"
   borderopacity="1"
   objecttolerance="10"
   gridtolerance="10"
   guidetolerance="10"
   inkscape:pageopacity="0"
   inkscape:pageshadow="2"
   inkscape:window-width="1820"
   inkscape:window-height="1079"
   id="namedview2374"
   showgrid="false"
   fit-margin-top="0"
   fit-margin-left="0"
   fit-margin-right="0"
   fit-margin-bottom="0"
   inkscape:zoom="0.76581959"
   inkscape:cx="640.30348"
   inkscape:cy="268.37651"
   inkscape:window-x="2117"
   inkscape:window-y="147"
   inkscape:window-maximized="0"
   inkscape:current-layer="filled_outline_10_" />
<g
   id="g2341"
   transform="translate(185.73174,55.548173)">
	<g
   id="g2339">
		<g
   id="filled_outline_10_">
			<circle
   style="fill:#e0561a;fill-opacity:1"
   cx="113.13982"
   cy="421.94418"
   r="298.48099"
   id="circle2330"
   transform="rotate(-30)" />
			<path
   style="fill:#f06529;fill-opacity:1"
   d="m 561.5536,219.38777 c -51.17939,-29.48331 -116.57104,-11.90897 -146.06352,39.27456 -2.22636,3.86383 -4.21267,7.87544 -5.93856,11.98611 l -12.02106,28.58292 -37.60724,-13.48965 c -54.47445,-19.54652 -114.47731,8.76147 -134.02383,63.23592 -1.54822,4.3164 -2.81407,8.73188 -3.78169,13.2119 v 0 c -8.79491,40.77878 7.42862,82.89675 41.32436,107.2299 l 4.30817,3.09797 c 20.85639,14.98432 44.19272,26.17203 68.93022,33.05664 l 151.21261,42.06192 C 575.57149,481.89746 620.21275,373.41839 604.18859,265.01173 594.84638,245.88655 579.99453,230.0024 561.5536,219.38777 Z"
   id="path2332" />
			<path
   style="fill:#e0561a;fill-opacity:0.37"
   d="m 533.20062,505.81296 c 22.01767,-25.06027 39.66504,-53.63413 52.2056,-84.54925 l 0.0445,-0.10885 c 7.45144,-18.36173 13.05452,-37.41491 16.74113,-56.88351 v 0 c 6.21948,-32.74355 6.89915,-66.29433 2.02805,-99.26732 -21.1503,-43.3854 -68.81765,-67.13566 -116.18661,-57.8871 1.08163,58.81142 -12.31298,116.98328 -38.98706,169.40442 -26.7214,50.09518 -62.9858,94.4694 -106.74777,130.63344 l 145.60956,40.50716 v 0 c 16.41238,-12.26892 31.51719,-26.20662 45.06414,-41.58663 z"
   id="path2334" />
			<path
   d="M 463.34054,576.24975 C 573.39858,512.52988 633.21531,387.93149 614.11817,262.20028 l 0.15156,-0.0875 c -0.0825,-0.1429 -0.17,-0.29445 -0.2575,-0.44601 C 587.93777,93.138492 430.1738,-22.33273 261.65102,3.751251 93.128235,29.835232 -22.348853,187.59105 3.7351279,356.11383 29.819109,524.63661 187.57356,640.11333 356.09634,614.02935 c 37.78474,-5.8409 74.14501,-18.65708 107.2442,-37.7796 z m 22.39168,-39.87047 -146.29035,-40.72032 c -23.58726,-6.53834 -45.82933,-17.19272 -65.70827,-31.47005 l -4.32232,-3.10249 c -42.39592,-30.42988 -52.0873,-89.47585 -21.65656,-131.87226 24.60927,-34.28148 68.96495,-48.08921 108.69379,-33.82683 l 46.797,16.78877 15.77925,-37.57353 c 20.48829,-49.15923 76.94979,-72.40306 126.10852,-51.91563 21.2681,8.86342 38.66556,25.06072 49.02701,45.64127 14.38082,102.3083 -26.95743,204.50637 -108.42807,268.05107 z M 164.86004,59.266355 C 302.53851,-20.365532 478.6938,26.692387 558.32069,164.3622 c 10.65019,18.40466 19.21913,37.9405 25.57038,58.24519 -49.37353,-41.81545 -123.29805,-35.70447 -165.12215,13.67405 -7.71576,9.11391 -13.99999,19.34931 -18.62376,30.36271 l -8.21333,19.57409 -28.45299,-10.17002 c -31.1989,-11.20008 -65.71147,-8.3996 -94.69542,7.68073 -29.11832,15.93158 -49.81456,43.79465 -56.66334,76.27221 -9.71091,44.7902 8.09937,91.07852 45.33083,117.8113 l 4.32733,3.11115 c 21.82471,15.6735 46.25173,27.37234 72.14165,34.56501 l 130.10059,36.18682 c -3.6008,2.30524 -7.25128,4.56642 -10.98644,6.72292 C 314.37986,636.54629 138.63047,587.49541 60.480813,448.84224 -16.52903,312.20528 29.857735,139.08751 164.86004,59.266355 Z"
   id="path2336" />
		<ellipse
   style="fill:none;fill-opacity:0.37;stroke:#000000;stroke-width:25.9856;stroke-linecap:round;stroke-miterlimit:4;stroke-dasharray:none"
   id="path3623"
   cx="105.22832"
   cy="291.64905"
   rx="471.4744"
   ry="71.090622"
   transform="matrix(0.86759963,-0.49726339,0.50274162,0.86443673,0,0)" /><rect
   style="fill:#e0561a;fill-opacity:1;stroke:none;stroke-width:0.9;stroke-linecap:round;stroke-miterlimit:4;stroke-dasharray:none"
   id="rect3642"
   width="197.3354"
   height="104.47171"
   x="49.705402"
   y="191.22108"
   transform="rotate(-29.999999)" /><path
   style="fill:#e0561a;fill-opacity:1;stroke:none;stroke-width:0.765583;stroke-linecap:butt;stroke-linejoin:miter;stroke-miterlimit:4;stroke-dasharray:none;stroke-opacity:1"
   d="M 30.23512,369.67087 40.454393,404.83993 196.54349,320.97052 406.01334,209.66503 493.70043,152.56087 527.49588,119.92728 502.6299,96.121986 Z"
   id="path3640"
   sodipodi:nodetypes="cccccccc" /><path
   sodipodi:type="star"
   style="fill:#000000;fill-opacity:1;stroke:#000000;stroke-width:0.75055;stroke-linecap:round;stroke-miterlimit:4;stroke-dasharray:none;stroke-opacity:1"
   id="path3644"
   sodipodi:sides="3"
   sodipodi:cx="246.15192"
   sodipodi:cy="111.08067"
   sodipodi:r1="41.141685"
   sodipodi:r2="20.570843"
   sodipodi:arg1="2.0607537"
   sodipodi:arg2="3.1079512"
   inkscape:flatsided="false"
   inkscape:rounded="0"
   inkscape:randomized="0"
   inkscape:transform-center-x="0.042661039"
   inkscape:transform-center-y="10.248459"
   transform="matrix(1.0208797,-0.54320925,0.54719159,1.0134499,-140.77638,177.64725)"
   d="m 226.79112,147.38216 -1.19841,-35.60958 -1.19841,-35.60959 31.43801,16.76694 31.43801,16.76694 -30.2396,18.84264 z" /></g>
	</g>
</g>
<g
   id="g2343"
   transform="translate(185.73174,55.548173)">
</g>
<g
   id="g2345"
   transform="translate(185.73174,55.548173)">
</g>
<g
   id="g2347"
   transform="translate(185.73174,55.548173)">
</g>
<g
   id="g2349"
   transform="translate(185.73174,55.548173)">
</g>
<g
   id="g2351"
   transform="translate(185.73174,55.548173)">
</g>
<g
   id="g2353"
   transform="translate(185.73174,55.548173)">
</g>
<g
   id="g2355"
   transform="translate(185.73174,55.548173)">
</g>
<g
   id="g2357"
   transform="translate(185.73174,55.548173)">
</g>
<g
   id="g2359"
   transform="translate(185.73174,55.548173)">
</g>
<g
   id="g2361"
   transform="translate(185.73174,55.548173)">
</g>
<g
   id="g2363"
   transform="translate(185.73174,55.548173)">
</g>
<g
   id="g2365"
   transform="translate(185.73174,55.548173)">
</g>
<g
   id="g2367"
   transform="translate(185.73174,55.548173)">
</g>
<g
   id="g2369"
   transform="translate(185.73174,55.548173)">
</g>
<g
   id="g2371"
   transform="translate(185.73174,55.548173)">
</g>
</svg>
